# xmcd CD Database Entry
#
# Track frame offsets:
# 150
# 20165
# 32782
# 54207
# 69580
#
# Disc length: 1313 seconds
#
# Revision: 2
# Processed by: cddbd v1.4b42PL1 Copyright (c) Steve Scherf et al.
# Submitted via: tcd 2.0b
#
DISCID=3d051f05
DTITLE=Dreadnaught - One Piece Missing
DYEAR=1900
DGENRE=
TTITLE0=Pushed To The Limit?
TTITLE1=Cold Sweat
TTITLE2=The Nile Song
TTITLE3=The Complex
TTITLE4=Demons
EXTD=
EXTT0=
EXTT1=
EXTT2=
EXTT3=
EXTT4=
PLAYORDER=
